<svg width="15" height="15" viewBox="0 0 18 18" fill="none" xmlns="http://www.w3.org/2000/svg">
<path d="M6.75 3.375H5.625C5.32663 3.375 5.04048 3.49353 4.82951 3.7045C4.61853 3.91548 4.5 4.20163 4.5 4.5V13.5C4.5 13.7984 4.61853 14.0845 4.82951 14.2955C5.04048 14.5065 5.32663 14.625 5.625 14.625H6.75C7.04837 14.625 7.33452 14.5065 7.5455 14.2955C7.75647 14.0845 7.875 13.7984 7.875 13.5V4.5C7.875 4.20163 7.75647 3.91548 7.5455 3.7045C7.33452 3.49353 7.04837 3.375 6.75 3.375ZM12.375 3.375H11.25C10.9516 3.375 10.6655 3.49353 10.4545 3.7045C10.2435 3.91548 10.125 4.20163 10.125 4.5V13.5C10.125 13.7984 10.2435 14.0845 10.4545 14.2955C10.6655 14.5065 10.9516 14.625 11.25 14.625H12.375C12.6734 14.625 12.9595 14.5065 13.1705 14.2955C13.3815 14.0845 13.5 13.7984 13.5 13.5V4.5C13.5 4.20163 13.3815 3.91548 13.1705 3.7045C12.9595 3.49353 12.6734 3.375 12.375 3.375Z" fill="currentColor"/>
</svg>
